<svg width="24" height="24" viewBox="0 0 24 24" fill="none" xmlns="http://www.w3.org/2000/svg">
<g id="arrow_back_ios_new">
<mask id="mask0_271_586" style="mask-type:alpha" maskUnits="userSpaceOnUse" x="0" y="0" width="24" height="24">
<rect id="Bounding box" width="24" height="24" fill="#D9D9D9"/>
</mask>
<g mask="url(#mask0_271_586)">
<path id="arrow_back_ios_new_2" d="M9.18459 11.9999L16.7173 19.5326C16.916 19.7314 17.0128 19.9653 17.0077 20.2346C17.0025 20.5038 16.9006 20.7377 16.7019 20.9365C16.5032 21.1352 16.2692 21.2345 16 21.2345C15.7308 21.2345 15.4968 21.1352 15.2981 20.9365L7.62694 13.2807C7.44616 13.0999 7.31218 12.8974 7.22501 12.673C7.13783 12.4486 7.09424 12.2243 7.09424 11.9999C7.09424 11.7756 7.13783 11.5512 7.22501 11.3269C7.31218 11.1025 7.44616 10.9 7.62694 10.7192L15.2981 3.04804C15.4968 2.84932 15.7333 2.75252 16.0077 2.75764C16.282 2.76277 16.5186 2.8647 16.7173 3.06341C16.916 3.26213 17.0154 3.4961 17.0154 3.76531C17.0154 4.03455 16.916 4.26852 16.7173 4.46724L9.18459 11.9999Z" fill="#1C1B1F"/>
</g>
</g>
</svg>
