<svg width="24" height="24" viewBox="0 0 24 24" fill="none" xmlns="http://www.w3.org/2000/svg">
<g id="Back">
<path id="Vector" d="M6.25 3C5.38805 3 4.5614 3.34241 3.9519 3.9519C3.34241 4.5614 3 5.38805 3 6.25V17.75C3 18.612 3.34241 19.4386 3.9519 20.0481C4.5614 20.6576 5.38805 21 6.25 21H17.75C18.612 21 19.4386 20.6576 20.0481 20.0481C20.6576 19.4386 21 18.612 21 17.75V6.25C21 5.38805 20.6576 4.5614 20.0481 3.9519C19.4386 3.34241 18.612 3 17.75 3H6.25ZM16.28 9.78L11.28 14.78C11.1394 14.9205 10.9488 14.9993 10.75 14.9993C10.5512 14.9993 10.3606 14.9205 10.22 14.78L8.216 12.776C8.14231 12.7073 8.08321 12.6245 8.04222 12.5325C8.00123 12.4405 7.97919 12.3412 7.97741 12.2405C7.97563 12.1398 7.99416 12.0398 8.03188 11.9464C8.0696 11.853 8.12574 11.7682 8.19696 11.697C8.26818 11.6257 8.35301 11.5696 8.4464 11.5319C8.53979 11.4942 8.63982 11.4756 8.74052 11.4774C8.84123 11.4792 8.94054 11.5012 9.03254 11.5422C9.12454 11.5832 9.20734 11.6423 9.276 11.716L10.75 13.189L15.22 8.719C15.2892 8.6474 15.372 8.5903 15.4635 8.55104C15.555 8.51178 15.6535 8.49114 15.7531 8.49032C15.8526 8.4895 15.9514 8.50852 16.0435 8.54628C16.1357 8.58403 16.2194 8.63976 16.2898 8.71021C16.3602 8.78066 16.4158 8.86443 16.4535 8.95662C16.4912 9.04881 16.5101 9.14758 16.5092 9.24716C16.5083 9.34674 16.4875 9.44515 16.4482 9.53663C16.4088 9.62812 16.3517 9.71085 16.28 9.78Z" fill="#E5B8F4"/>
</g>
</svg>
