<svg width="217" height="40" viewBox="0 0 217 40" fill="none" xmlns="http://www.w3.org/2000/svg">
<g id="Barcode">
<rect id="Rectangle" width="3" height="40" fill="white"/>
<rect id="Rectangle_2" x="5" width="2" height="40" fill="white"/>
<rect id="Rectangle_3" x="10" width="4" height="40" fill="white"/>
<rect id="Rectangle_4" x="15" width="1" height="40" fill="white"/>
<rect id="Rectangle_5" x="17" width="4" height="40" fill="white"/>
<rect id="Rectangle_6" x="23" width="2" height="40" fill="white"/>
<rect id="Rectangle_7" x="27" width="2" height="40" fill="white"/>
<rect id="Rectangle_8" x="31" width="5" height="40" fill="white"/>
<rect id="Rectangle_9" x="37" width="6" height="40" fill="white"/>
<rect id="Rectangle_10" x="45" width="2" height="40" fill="white"/>
<rect id="Rectangle_11" x="48" width="1" height="40" fill="white"/>
<rect id="Rectangle_12" x="52" width="5" height="40" fill="white"/>
<rect id="Rectangle_13" x="59" width="1" height="40" fill="white"/>
<rect id="Rectangle_14" x="62" width="2" height="40" fill="white"/>
<rect id="Rectangle_15" x="65" width="5" height="40" fill="white"/>
<rect id="Rectangle_16" x="72" width="5" height="40" fill="white"/>
<rect id="Rectangle_17" x="79" width="2" height="40" fill="white"/>
<rect id="Rectangle_18" x="84" width="5" height="40" fill="white"/>
<rect id="Rectangle_19" x="91" width="5" height="40" fill="white"/>
<rect id="Rectangle_20" x="97" width="2" height="40" fill="white"/>
<rect id="Rectangle_21" x="103" width="2" height="40" fill="white"/>
<rect id="Rectangle_22" x="108" width="5" height="40" fill="white"/>
<rect id="Rectangle_23" x="117" width="3" height="40" fill="white"/>
<rect id="Rectangle_24" x="123" width="2" height="40" fill="white"/>
<rect id="Rectangle_25" x="128" width="1" height="40" fill="white"/>
<rect id="Rectangle_26" x="130" width="5" height="40" fill="white"/>
<rect id="Rectangle_27" x="137" width="2" height="40" fill="white"/>
<rect id="Rectangle_28" x="140" width="3" height="40" fill="white"/>
<rect id="Rectangle_29" x="145" width="5" height="40" fill="white"/>
<rect id="Rectangle_30" x="152" width="5" height="40" fill="white"/>
<rect id="Rectangle_31" x="158" width="2" height="40" fill="white"/>
<rect id="Rectangle_32" x="161" width="3" height="40" fill="white"/>
<rect id="Rectangle_33" x="165" width="4" height="40" fill="white"/>
<rect id="Rectangle_34" x="170" width="2" height="40" fill="white"/>
<rect id="Rectangle_35" x="173" width="2" height="40" fill="white"/>
<rect id="Rectangle_36" x="176" width="3" height="40" fill="white"/>
<rect id="Rectangle_37" x="180" width="5" height="40" fill="white"/>
<rect id="Rectangle_38" x="186" width="2" height="40" fill="white"/>
<rect id="Rectangle_39" x="191" width="3" height="40" fill="white"/>
<rect id="Rectangle_40" x="196" width="5" height="40" fill="white"/>
<rect id="Rectangle_41" x="204" width="5" height="40" fill="white"/>
<rect id="Rectangle_42" x="210" width="3" height="40" fill="white"/>
<rect id="Rectangle_43" x="216" width="1" height="40" fill="white"/>
</g>
</svg>
