<svg width="20" height="20" viewBox="0 0 20 20" fill="none" xmlns="http://www.w3.org/2000/svg">
<g id="currency_exchange">
<mask id="mask0_263_2098" style="mask-type:alpha" maskUnits="userSpaceOnUse" x="0" y="0" width="20" height="20">
<rect id="Bounding box" width="20" height="20" fill="#D9D9D9"/>
</mask>
<g mask="url(#mask0_263_2098)">
<path id="currency_exchange_2" d="M10.125 13.6186C10.5994 13.6186 11.0251 13.5003 11.4023 13.2636C11.7794 13.027 11.968 12.6474 11.968 12.125C11.968 11.6901 11.8058 11.3437 11.4816 11.0857C11.1573 10.8277 10.5524 10.5363 9.66669 10.2115C8.80984 9.90383 8.19179 9.55927 7.81252 9.17786C7.43325 8.79645 7.24361 8.29272 7.24361 7.66665C7.24361 7.12926 7.43752 6.63727 7.82534 6.19069C8.21316 5.7441 8.75536 5.45938 9.45194 5.33652V4.89581C9.45194 4.74411 9.50883 4.61136 9.62261 4.49758C9.73639 4.38381 9.86913 4.32692 10.0208 4.32692C10.1725 4.32692 10.3053 4.38381 10.4191 4.49758C10.5328 4.61136 10.5897 4.74411 10.5897 4.89581V5.33652C10.9818 5.3643 11.3467 5.4917 11.6843 5.71873C12.0219 5.94576 12.2975 6.22754 12.5112 6.56408C12.5871 6.67947 12.594 6.8026 12.532 6.93346C12.4701 7.06433 12.3659 7.15648 12.2195 7.2099C12.0817 7.26331 11.9426 7.27026 11.8021 7.23073C11.6616 7.1912 11.5465 7.11108 11.4568 6.99036C11.2965 6.79698 11.1002 6.6402 10.8678 6.52C10.6354 6.39981 10.36 6.33971 10.0417 6.33971C9.5235 6.33971 9.11725 6.46258 8.82292 6.70831C8.52857 6.95404 8.3814 7.27348 8.3814 7.66665C8.3814 8.05981 8.52509 8.3659 8.81248 8.58492C9.09987 8.80393 9.68161 9.06302 10.5577 9.36217C11.5577 9.72328 12.2297 10.1282 12.5737 10.5769C12.9177 11.0256 13.0897 11.5416 13.0897 12.125C13.0897 12.5224 13.0163 12.8712 12.8694 13.1715C12.7225 13.4717 12.5304 13.7241 12.2933 13.9287C12.0561 14.1333 11.786 14.2948 11.4832 14.4134C11.1803 14.532 10.8686 14.6154 10.5481 14.6634V15.1041C10.5481 15.2559 10.4912 15.3886 10.3774 15.5024C10.2636 15.6162 10.1309 15.673 9.97917 15.673C9.82746 15.673 9.69472 15.6162 9.58094 15.5024C9.46716 15.3886 9.41027 15.2559 9.41027 15.1041V14.6218C8.89852 14.5107 8.45515 14.3117 8.08015 14.0248C7.70515 13.738 7.4012 13.3638 7.16829 12.9022C7.10098 12.7558 7.10044 12.6111 7.16669 12.4679C7.23293 12.3248 7.33923 12.2265 7.48559 12.1731C7.62341 12.1196 7.76389 12.1205 7.90704 12.1755C8.05021 12.2305 8.15972 12.3226 8.23557 12.4519C8.45139 12.8344 8.72195 13.1245 9.04727 13.3221C9.37259 13.5198 9.73184 13.6186 10.125 13.6186ZM10 18.75C8.375 18.75 6.90037 18.3477 5.57611 17.5432C4.25186 16.7387 3.21313 15.6607 2.45994 14.3092V16.1698C2.45994 16.3472 2.40011 16.4957 2.28046 16.6153C2.16079 16.735 2.01229 16.7948 1.83494 16.7948C1.65761 16.7948 1.50911 16.735 1.38944 16.6153C1.26979 16.4957 1.20996 16.3472 1.20996 16.1698V12.9647C1.20996 12.75 1.28181 12.5707 1.4255 12.427C1.5692 12.2833 1.74842 12.2115 1.96317 12.2115H5.16829C5.34563 12.2115 5.49413 12.2713 5.61379 12.391C5.73345 12.5106 5.79327 12.6591 5.79327 12.8365C5.79327 13.0138 5.73345 13.1623 5.61379 13.282C5.49413 13.4016 5.34563 13.4615 5.16829 13.4615H3.42625C4.02882 14.6752 4.91932 15.6517 6.09773 16.391C7.27616 17.1303 8.57692 17.5 10 17.5C11.937 17.5 13.609 16.8606 15.016 15.5817C16.4231 14.3029 17.2345 12.7067 17.4503 10.7933C17.4728 10.6191 17.5459 10.4781 17.6699 10.3702C17.7938 10.2623 17.9428 10.2083 18.117 10.2083C18.2943 10.2083 18.4436 10.2679 18.5649 10.387C18.6861 10.5061 18.7356 10.6485 18.7131 10.8141C18.6106 11.9305 18.313 12.9698 17.8205 13.9319C17.328 14.8939 16.692 15.7321 15.9126 16.4463C15.1333 17.1605 14.239 17.723 13.23 18.1338C12.2209 18.5446 11.1442 18.75 10 18.75ZM10 2.49998C8.09509 2.49998 6.43243 3.13006 5.01202 4.39021C3.59162 5.65035 2.77084 7.25318 2.54969 9.19869C2.52725 9.37283 2.45406 9.51519 2.33013 9.62577C2.20621 9.73634 2.05718 9.79163 1.88304 9.79163C1.70035 9.79163 1.54971 9.73206 1.43113 9.61294C1.31253 9.49383 1.26445 9.3488 1.2869 9.17786C1.40015 8.04004 1.70704 6.98876 2.20757 6.02402C2.70809 5.05929 3.34805 4.22382 4.12744 3.51763C4.90682 2.81143 5.79837 2.25694 6.80211 1.85417C7.80584 1.45139 8.87181 1.25 10 1.25C11.609 1.25 13.0836 1.65358 14.4239 2.46075C15.7642 3.26792 16.8029 4.35527 17.5401 5.72281V3.83015C17.5401 3.6528 17.5999 3.5043 17.7195 3.38465C17.8392 3.26499 17.9877 3.20517 18.165 3.20517C18.3424 3.20517 18.4909 3.26499 18.6106 3.38465C18.7302 3.5043 18.79 3.6528 18.79 3.83015V7.03527C18.79 7.25001 18.7182 7.42922 18.5745 7.57292C18.4308 7.71661 18.2516 7.78846 18.0368 7.78846H14.8317C14.6544 7.78846 14.5059 7.72863 14.3862 7.60898C14.2666 7.48933 14.2067 7.34083 14.2067 7.16348C14.2067 6.98613 14.2666 6.83763 14.3862 6.71798C14.5059 6.59833 14.6544 6.5385 14.8317 6.5385H16.5738C15.9872 5.34617 15.1034 4.375 13.9223 3.625C12.7412 2.87499 11.4338 2.49998 10 2.49998Z" fill="#2D033B"/>
</g>
</g>
</svg>
