<svg width="240" height="240" viewBox="0 0 240 240" fill="none" xmlns="http://www.w3.org/2000/svg">
<circle cx="120" cy="120" r="120" fill="white" fill-opacity="0.04"/>
<circle cx="119.5" cy="119.5" r="99.5" fill="white" fill-opacity="0.07"/>
<circle cx="120" cy="120" r="80" fill="white" fill-opacity="0.12"/>
<path d="M88.8736 111.341L90.8049 112.513L91.9533 110.391C94.5424 106.055 102.466 95.9375 120 95.9375C137.969 95.9375 145.625 106.925 148.141 110.541L149.416 112.525L153.419 110L152.085 107.913C150.697 105.905 147.785 101.736 142.588 98.0531C136.274 93.5656 128.672 91.2891 120 91.2891C99.9893 91.2891 90.8299 103.025 87.8127 108.047L86.6611 110L88.4377 111.072C88.5185 111.135 88.6036 111.192 88.6924 111.244C88.7511 111.279 88.8116 111.312 88.8736 111.341Z" fill="white"/>
<path d="M139.253 106.925C133.7 102.405 127.047 100.011 120 100.011C104.762 100.011 94.6387 110.323 91.3543 120.553C88.3465 130 92.0028 143.689 92.1559 144.275L92.8403 146.433L97.5168 145.428L96.7762 143.084C96.7434 142.967 93.3231 130.127 95.9309 121.958C97.3371 117.57 100.264 113.302 103.954 110.272C108.407 106.623 113.961 104.688 120 104.688C134.153 104.688 142.176 115.72 144.445 121.58C146.206 126.1 145.8 131.239 143.464 134.392C142.6 135.547 141.076 136.903 138.757 136.786C133.475 136.517 132.561 133.906 131.29 128.934C130.681 126.541 130.056 124.063 128.498 122.059C126.601 119.598 123.842 118.409 120.017 118.409C115.903 118.409 112.787 119.766 110.739 122.428C106.27 128.253 109.176 138.199 109.3 138.617L109.334 138.75C109.554 139.353 114.972 153.852 129.479 157.45L131.787 157.952L133.051 153.466L130.665 152.93C119.068 150.05 114.226 138.181 113.854 137.244C113.435 135.722 113.168 134.163 113.057 132.589C112.889 130.33 113.007 127.216 114.531 125.224C115.648 123.767 117.443 123.064 120 123.064C124.654 123.064 125.434 125.341 126.653 130.063C127.837 134.666 129.465 140.977 138.503 141.43C141.973 141.597 145.106 140.056 147.306 137.109C150.607 132.691 151.234 125.927 148.898 119.9C147.073 115.156 143.553 110.441 139.253 106.925Z" fill="white"/>
<path d="M104.091 133.627C103.549 129.208 104.311 122.533 108.239 118.192C110.964 115.178 114.925 113.661 119.988 113.661C125.846 113.661 130.28 116.273 133.192 121.413C134.626 123.991 135.573 126.812 135.986 129.733L136.21 132.028L140.897 131.684C140.902 130.869 140.849 130.055 140.741 129.247C140.724 129.047 140.183 124.175 137.46 119.286C133.7 112.55 127.674 108.984 120 108.984C113.516 108.984 108.352 111.044 104.678 115.095C99.7018 120.586 98.6862 128.572 99.3799 134.212V134.264C100.625 142.784 103.906 149.598 109.711 155.692L111.524 157.445L114.797 154.041L113.181 152.511C108.069 147.155 105.174 141.161 104.091 133.627Z" fill="white"/>
<path d="M100.698 91.3531C102.43 90.3031 108.553 87.1703 120 87.1703C133.678 87.1703 139.756 91.6578 139.823 91.6906L141.995 93.075L144.531 89.1359L142.466 87.7984C142.384 87.7391 142.3 87.6797 142.216 87.6234C140.234 86.3344 133.209 82.5 120 82.5C106.295 82.5 99.2578 86.6375 97.5922 87.7672L95.4688 89.1438L98 93.0828L100.698 91.3531Z" fill="white"/>
<path d="M141.03 144.876C135.816 145.462 131.585 144.459 128.419 141.931C123.069 137.645 122.375 130.195 122.358 130.056L122.166 127.731L117.396 128.08L117.6 130.423C117.635 130.808 118.413 139.916 125.353 145.508C128.808 148.303 133.125 149.709 138.203 149.709C139.329 149.707 140.454 149.64 141.572 149.508L144.164 149.181L143.211 144.539L141.03 144.876Z" fill="white"/>
</svg>
