<svg width="18" height="15" viewBox="0 0 18 15" fill="none" xmlns="http://www.w3.org/2000/svg">
<g id="ph:heart" clip-path="url(#clip0_283_1509)">
<path id="Vector" d="M8.35016 2.16662L8.75 2.69915L9.14984 2.16662C9.92931 1.12848 11.1889 0.500078 12.656 0.5C13.8077 0.501373 14.9118 0.959485 15.7261 1.77385C16.5406 2.58829 16.9987 3.69253 17 4.84431C16.9997 7.34451 15.1287 9.68871 13.0731 11.4889C11.0438 13.2661 8.9679 14.3975 8.81215 14.48L8.81215 14.48L8.80922 14.4815C8.79101 14.4913 8.77067 14.4965 8.75 14.4965C8.72933 14.4965 8.70899 14.4913 8.69079 14.4815L8.68785 14.48C8.5321 14.3975 6.45624 13.2661 4.42687 11.4889C2.37122 9.68864 0.500136 7.34433 0.5 4.84402C0.501375 3.69234 0.959486 2.58822 1.77385 1.77385C2.58822 0.959486 3.69234 0.501374 4.84402 0.5C6.31107 0.500078 7.57069 1.12848 8.35016 2.16662ZM8.49827 14.0883L8.75026 14.2351L9.00211 14.088C9.72762 13.6644 11.6386 12.4869 13.3746 10.875C15.0854 9.28651 16.75 7.16326 16.75 4.84375V4.8431C16.7486 3.75798 16.3169 2.7177 15.5496 1.9504C14.7823 1.1831 13.742 0.751413 12.6569 0.75H12.6562C10.9554 0.75 9.48296 1.66045 8.86536 3.17005L9.32812 3.35938L8.86562 3.16939C8.85621 3.19232 8.84019 3.21193 8.8196 3.22573C8.79901 3.23953 8.77479 3.2469 8.75 3.2469C8.72521 3.2469 8.70099 3.23953 8.6804 3.22573C8.65981 3.21193 8.64379 3.19232 8.63437 3.16939L8.17188 3.35938L8.63452 3.16976C8.01703 1.66315 6.54501 0.75 4.84375 0.75L4.8431 0.75C3.75798 0.751413 2.7177 1.1831 1.9504 1.9504C1.1831 2.7177 0.751413 3.75798 0.75 4.8431V4.84375C0.75 7.16625 2.41405 9.28965 4.12488 10.8777C5.86075 12.489 7.77185 13.665 8.49827 14.0883ZM7.70923 3.54899L7.70938 3.54936C7.79413 3.7557 7.93832 3.93218 8.12361 4.05638C8.3089 4.18058 8.52693 4.2469 8.75 4.2469C8.97307 4.2469 9.1911 4.18058 9.37639 4.05638C9.56168 3.93218 9.70587 3.7557 9.79063 3.54936L9.79089 3.5487C10.2389 2.45369 11.3178 1.7501 12.656 1.75C13.4762 1.75116 14.2625 2.07751 14.8425 2.65751C15.4226 3.23759 15.7489 4.024 15.75 4.84436C15.7497 6.71293 14.377 8.57968 12.6942 10.1422C11.2077 11.5224 9.57548 12.5773 8.74976 13.075C7.92361 12.5779 6.29147 11.5244 4.8052 10.1448C3.12276 8.58309 1.75014 6.71597 1.75 4.84404C1.75116 4.02381 2.07751 3.23751 2.65751 2.65751C3.23751 2.07751 4.02382 1.75116 4.84404 1.75C6.18171 1.7501 7.26113 2.45568 7.70923 3.54899Z" stroke="black"/>
</g>
<defs>
<clipPath id="clip0_283_1509">
<rect width="18" height="15" fill="white"/>
</clipPath>
</defs>
</svg>
