<svg width="24" height="24" viewBox="0 0 24 24" fill="none" xmlns="http://www.w3.org/2000/svg">
<g id="instant_mix">
<mask id="mask0_266_2040" style="mask-type:alpha" maskUnits="userSpaceOnUse" x="0" y="0" width="24" height="24">
<rect id="Bounding box" width="24" height="24" fill="#D9D9D9"/>
</mask>
<g mask="url(#mask0_266_2040)">
<path id="instant_mix_2" d="M6 20C5.71667 20 5.47917 19.9042 5.2875 19.7125C5.09583 19.5208 5 19.2833 5 19V13H4C3.71667 13 3.47917 12.9042 3.2875 12.7125C3.09583 12.5208 3 12.2833 3 12C3 11.7167 3.09583 11.4792 3.2875 11.2875C3.47917 11.0958 3.71667 11 4 11H8C8.28333 11 8.52083 11.0958 8.7125 11.2875C8.90417 11.4792 9 11.7167 9 12C9 12.2833 8.90417 12.5208 8.7125 12.7125C8.52083 12.9042 8.28333 13 8 13H7V19C7 19.2833 6.90417 19.5208 6.7125 19.7125C6.52083 19.9042 6.28333 20 6 20ZM6 9C5.71667 9 5.47917 8.90417 5.2875 8.7125C5.09583 8.52083 5 8.28333 5 8V5C5 4.71667 5.09583 4.47917 5.2875 4.2875C5.47917 4.09583 5.71667 4 6 4C6.28333 4 6.52083 4.09583 6.7125 4.2875C6.90417 4.47917 7 4.71667 7 5V8C7 8.28333 6.90417 8.52083 6.7125 8.7125C6.52083 8.90417 6.28333 9 6 9ZM10 9C9.71667 9 9.47917 8.90417 9.2875 8.7125C9.09583 8.52083 9 8.28333 9 8C9 7.71667 9.09583 7.47917 9.2875 7.2875C9.47917 7.09583 9.71667 7 10 7H11V5C11 4.71667 11.0958 4.47917 11.2875 4.2875C11.4792 4.09583 11.7167 4 12 4C12.2833 4 12.5208 4.09583 12.7125 4.2875C12.9042 4.47917 13 4.71667 13 5V7H14C14.2833 7 14.5208 7.09583 14.7125 7.2875C14.9042 7.47917 15 7.71667 15 8C15 8.28333 14.9042 8.52083 14.7125 8.7125C14.5208 8.90417 14.2833 9 14 9H10ZM12 20C11.7167 20 11.4792 19.9042 11.2875 19.7125C11.0958 19.5208 11 19.2833 11 19V12C11 11.7167 11.0958 11.4792 11.2875 11.2875C11.4792 11.0958 11.7167 11 12 11C12.2833 11 12.5208 11.0958 12.7125 11.2875C12.9042 11.4792 13 11.7167 13 12V19C13 19.2833 12.9042 19.5208 12.7125 19.7125C12.5208 19.9042 12.2833 20 12 20ZM18 20C17.7167 20 17.4792 19.9042 17.2875 19.7125C17.0958 19.5208 17 19.2833 17 19V17H16C15.7167 17 15.4792 16.9042 15.2875 16.7125C15.0958 16.5208 15 16.2833 15 16C15 15.7167 15.0958 15.4792 15.2875 15.2875C15.4792 15.0958 15.7167 15 16 15H20C20.2833 15 20.5208 15.0958 20.7125 15.2875C20.9042 15.4792 21 15.7167 21 16C21 16.2833 20.9042 16.5208 20.7125 16.7125C20.5208 16.9042 20.2833 17 20 17H19V19C19 19.2833 18.9042 19.5208 18.7125 19.7125C18.5208 19.9042 18.2833 20 18 20ZM18 13C17.7167 13 17.4792 12.9042 17.2875 12.7125C17.0958 12.5208 17 12.2833 17 12V5C17 4.71667 17.0958 4.47917 17.2875 4.2875C17.4792 4.09583 17.7167 4 18 4C18.2833 4 18.5208 4.09583 18.7125 4.2875C18.9042 4.47917 19 4.71667 19 5V12C19 12.2833 18.9042 12.5208 18.7125 12.7125C18.5208 12.9042 18.2833 13 18 13Z" fill="#2D033B"/>
</g>
</g>
</svg>
