<svg width="34" height="34" viewBox="0 0 34 34" fill="none" xmlns="http://www.w3.org/2000/svg">
<g id="theaters">
<mask id="mask0_67_934" style="mask-type:alpha" maskUnits="userSpaceOnUse" x="0" y="0" width="34" height="34">
<rect id="Bounding box" width="34" height="34" fill="#D9D9D9"/>
</mask>
<g mask="url(#mask0_67_934)">
<path id="theaters_2" d="M8.5678 27.2385V28.4011C8.5678 28.8384 8.41987 29.2051 8.12399 29.501C7.82812 29.7968 7.46149 29.9448 7.02409 29.9448C6.58882 29.9448 6.22132 29.7949 5.92157 29.4951C5.62181 29.1954 5.47192 28.8279 5.47192 28.3926V5.59888C5.47192 5.16149 5.62181 4.79485 5.92157 4.49898C6.22132 4.20311 6.58882 4.05518 7.02409 4.05518C7.45937 4.05518 7.82547 4.20311 8.1224 4.49898C8.41933 4.79485 8.5678 5.16149 8.5678 5.59888V6.76147H11.2656V5.66663C11.2656 5.21443 11.4212 4.83281 11.7322 4.52176C12.0433 4.2107 12.4249 4.05518 12.8771 4.05518H21.123C21.5752 4.05518 21.9568 4.2107 22.2679 4.52176C22.5789 4.83281 22.7345 5.21443 22.7345 5.66663V6.76147H25.4323V5.59888C25.4323 5.16149 25.5822 4.79485 25.8819 4.49898C26.1817 4.20311 26.5492 4.05518 26.9845 4.05518C27.4197 4.05518 27.7858 4.20311 28.0828 4.49898C28.3797 4.79485 28.5282 5.16149 28.5282 5.59888V28.4011C28.5282 28.8384 28.3802 29.2051 28.0844 29.501C27.7885 29.7968 27.4219 29.9448 26.9845 29.9448C26.5492 29.9448 26.1817 29.7949 25.8819 29.4951C25.5822 29.1954 25.4323 28.8279 25.4323 28.3926V27.2385H22.7345V28.3333C22.7345 28.7855 22.5789 29.1671 22.2679 29.4782C21.9568 29.7892 21.5752 29.9448 21.123 29.9448H12.8771C12.4249 29.9448 12.0433 29.7892 11.7322 29.4782C11.4212 29.1671 11.2656 28.7855 11.2656 28.3333V27.2385H8.5678ZM8.5678 24.1511H11.2656V21.4448H8.5678V24.1511ZM8.5678 18.3489H11.2656V15.6511H8.5678V18.3489ZM8.5678 12.5552H11.2656V9.84888H8.5678V12.5552ZM22.7345 24.1511H25.4323V21.4448H22.7345V24.1511ZM22.7345 18.3489H25.4323V15.6511H22.7345V18.3489ZM22.7345 12.5552H25.4323V9.84888H22.7345V12.5552ZM14.3615 26.8489H19.6386V7.15105H14.3615V26.8489Z" fill="white"/>
</g>
</g>
</svg>
